<?xml version="1.0" encoding="utf-8"?>
<!-- Generator: Adobe Illustrator 23.0.5, SVG Export Plug-In . SVG Version: 6.00 Build 0)  -->
<svg version="1.1" id="Слой_5" xmlns="http://www.w3.org/2000/svg" xmlns:xlink="http://www.w3.org/1999/xlink" x="0px" y="0px"
	 viewBox="0 0 1880 1210" style="enable-background:new 0 0 1880 1210;" xml:space="preserve">
<style type="text/css">
	.st0{fill:#666666;}
	.st1{fill:#8BC34A;}
</style>
<g id="Слой_4">
	<rect x="607.63" y="22.89" class="st0" width="103.52" height="1164.94"/>
	<path class="st0" d="M1342.03,22.89h-158.4v1164.94h158.4c93.12,0,139.69-47.8,139.69-143.43V167.57
		C1481.72,71.12,1435.14,22.89,1342.03,22.89z M1378.2,1030.67c0,16.64-3.33,29.74-9.98,39.29c-6.67,9.57-18.71,14.34-36.17,14.34
		h-44.9V126.41h44.9c17.46,0,29.51,4.79,36.17,14.34c6.64,9.57,9.98,22.67,9.98,39.29V1030.67z"/>
	<path class="st0" d="M953.67,23.43H796.84V1186.5h162.04v-0.13c78.02-2.76,140.64-67.04,140.64-145.72V169.29
		C1099.52,88.86,1034.09,23.43,953.67,23.43z M995.34,1040.65c0,22.98-18.69,41.67-41.67,41.67h-52.65V657.78h94.32V1040.65z
		 M995.34,553.6h-94.32V127.62h52.65c22.98,0,41.67,18.69,41.67,41.67V553.6z"/>
</g>
<g id="Слой_8">
	<g>
		<path class="st1" d="M1565.68,926.72h67.51v93.67c0,1.97,0.99,2.95,2.95,2.95h225.31v67.51h-225.31c-1.96,0-2.95,0.99-2.95,2.96
			v94.09h-67.51V926.72z"/>
		<path class="st1" d="M1634.04,816.18c0,2.26,1.13,3.38,3.38,3.38h56.12c2.53,0,3.8-1.12,3.8-3.38V679.05h67.09v137.13
			c0,2.26,1.27,3.38,3.8,3.38h21.94c2.26,0,3.38-1.12,3.38-3.38V646.56h67.51v240.5h-295.35v-240.5h68.35V816.18z"/>
		<path class="st1" d="M1861.46,314.08v71.73l-29.96,10.97c-1.97,0.57-2.95,1.83-2.95,3.8V528c0,1.69,0.99,2.95,2.95,3.8
			l29.96,10.55v71.73l-295.78-106.33v-87.34L1861.46,314.08z M1755.55,504.37c1.41,0.57,2.68,0.42,3.8-0.42
			c1.13-0.84,1.69-1.97,1.69-3.38v-72.99c0-3.65-1.83-4.92-5.48-3.8l-101.26,36.29c-1.96,0.84-2.95,2.26-2.95,4.22
			c0,1.97,0.99,3.24,2.95,3.8L1755.55,504.37z"/>
		<path class="st1" d="M1565.68,22.1h295.78v67.51h-123.21c-0.84,0-1.4,0.49-1.69,1.48c-0.28,0.99,0,1.76,0.84,2.32l78.48,37.55
			v52.74l-78.06,37.97c-1.12,0.57-1.54,1.26-1.27,2.11c0.28,0.84,0.99,1.27,2.11,1.27h122.78v67.51h-295.78v-62.87l145.99-70.46
			c0.57-0.56,0.84-1.19,0.84-1.9c0-0.7-0.28-1.19-0.84-1.48l-145.99-70.46V22.1z"/>
	</g>
</g>
<g id="Слой_3">
	<path class="st1" d="M21.36,23.58v1163.09h499.05V23.58H21.36z M404.11,451.16H244.68v101.58h159.43v309.94H244.68v101.44h159.43
		v104.18H140.5V758.5h159.43V656.92H140.5V346.98h159.43V245.41H140.5V141.23h263.61V451.16z"/>
</g>
</svg>
